# xmcd
#
# Track frame offsets:
#	150
#	21510
#	41717
#	61182
#	81024
#	103680
#	126540
#	147465
#	169525
#	194777
#	220367
#
# Disc length: 3173 seconds
#
# Revision: 1
# Processed by: cddbd v1.5.2PL0 Copyright (c) Steve Scherf et al.
# Submitted via: EZCDAudioConverter 8.0.2.1
#
DISCID=aa0c630b
DTITLE=Lương Tùng Quang - Từ Khi Em Đến
DYEAR=2004
DGENRE=R&B
TTITLE0=Lương Tùng Quang - Tình một đêm
TTITLE1=Lương Tùng Quang - Mộng vỡ
TTITLE2=Lương Tùng Quang - Từ Khi Em Đến
TTITLE3=Lương Tùng Quang, Minh Tuyết - Bây giờ và mãi mãi
TTITLE4=Lương Tùng Quang - Trái tim tội lỗi
TTITLE5=Lương Tùng Quang - Không phải em
TTITLE6=Lương Tùng Quang, Tú Quyên - Tình hoang vắng
TTITLE7=Lương Tùng Quang - Làm sao quên được em
TTITLE8=Lương Tùng Quang - Nỗi nhớ... Nơi con tim mồ côi
TTITLE9=Lương Tùng Quang - Sao không thấy em về
TTITLE10=Lương Tùng Quang - Tình yêu tìm thấy
EXTD=
EXTT0=
EXTT1=
EXTT2=
EXTT3=
EXTT4=
EXTT5=
EXTT6=
EXTT7=
EXTT8=
EXTT9=
EXTT10=
PLAYORDER=
